<svg width="15" height="18" viewBox="0 0 15 18" fill="none" xmlns="http://www.w3.org/2000/svg">
<path d="M4.95536 10.0714H3.61607C3.39509 10.0714 3.21429 9.89063 3.21429 9.66964V8.33036C3.21429 8.10938 3.39509 7.92857 3.61607 7.92857H4.95536C5.17634 7.92857 5.35714 8.10938 5.35714 8.33036V9.66964C5.35714 9.89063 5.17634 10.0714 4.95536 10.0714ZM8.57143 9.66964V8.33036C8.57143 8.10938 8.39062 7.92857 8.16964 7.92857H6.83036C6.60938 7.92857 6.42857 8.10938 6.42857 8.33036V9.66964C6.42857 9.89063 6.60938 10.0714 6.83036 10.0714H8.16964C8.39062 10.0714 8.57143 9.89063 8.57143 9.66964ZM11.7857 9.66964V8.33036C11.7857 8.10938 11.6049 7.92857 11.3839 7.92857H10.0446C9.82366 7.92857 9.64286 8.10938 9.64286 8.33036V9.66964C9.64286 9.89063 9.82366 10.0714 10.0446 10.0714H11.3839C11.6049 10.0714 11.7857 9.89063 11.7857 9.66964ZM8.57143 12.8839V11.5446C8.57143 11.3237 8.39062 11.1429 8.16964 11.1429H6.83036C6.60938 11.1429 6.42857 11.3237 6.42857 11.5446V12.8839C6.42857 13.1049 6.60938 13.2857 6.83036 13.2857H8.16964C8.39062 13.2857 8.57143 13.1049 8.57143 12.8839ZM5.35714 12.8839V11.5446C5.35714 11.3237 5.17634 11.1429 4.95536 11.1429H3.61607C3.39509 11.1429 3.21429 11.3237 3.21429 11.5446V12.8839C3.21429 13.1049 3.39509 13.2857 3.61607 13.2857H4.95536C5.17634 13.2857 5.35714 13.1049 5.35714 12.8839ZM11.7857 12.8839V11.5446C11.7857 11.3237 11.6049 11.1429 11.3839 11.1429H10.0446C9.82366 11.1429 9.64286 11.3237 9.64286 11.5446V12.8839C9.64286 13.1049 9.82366 13.2857 10.0446 13.2857H11.3839C11.6049 13.2857 11.7857 13.1049 11.7857 12.8839ZM15 4.17857V15.9643C15 16.8516 14.2801 17.5714 13.3929 17.5714H1.60714C0.719866 17.5714 0 16.8516 0 15.9643V4.17857C0 3.2913 0.719866 2.57143 1.60714 2.57143H3.21429V0.830359C3.21429 0.609377 3.39509 0.428574 3.61607 0.428574H4.95536C5.17634 0.428574 5.35714 0.609377 5.35714 0.830359V2.57143H9.64286V0.830359C9.64286 0.609377 9.82366 0.428574 10.0446 0.428574H11.3839C11.6049 0.428574 11.7857 0.609377 11.7857 0.830359V2.57143H13.3929C14.2801 2.57143 15 3.2913 15 4.17857ZM13.3929 15.7634V5.78572H1.60714V15.7634C1.60714 15.8739 1.69754 15.9643 1.80804 15.9643H13.192C13.3025 15.9643 13.3929 15.8739 13.3929 15.7634Z" fill="black"/>
</svg>
