<svg width="24" height="24" viewBox="0 0 24 24" fill="none" xmlns="http://www.w3.org/2000/svg">
    <g clip-path="url(#clip0)">
        <path d="M8.05125 13.0134H6.19141C5.88454 13.0134 5.63346 12.7623 5.63346 12.4554V10.5956C5.63346 10.2887 5.88454 10.0376 6.19141 10.0376H8.05125C8.35812 10.0376 8.6092 10.2887 8.6092 10.5956V12.4554C8.6092 12.7623 8.35812 13.0134 8.05125 13.0134ZM13.0728 12.4554V10.5956C13.0728 10.2887 12.8217 10.0376 12.5149 10.0376H10.655C10.3481 10.0376 10.0971 10.2887 10.0971 10.5956V12.4554C10.0971 12.7623 10.3481 13.0134 10.655 13.0134H12.5149C12.8217 13.0134 13.0728 12.7623 13.0728 12.4554ZM17.5364 12.4554V10.5956C17.5364 10.2887 17.2853 10.0376 16.9785 10.0376H15.1186C14.8117 10.0376 14.5607 10.2887 14.5607 10.5956V12.4554C14.5607 12.7623 14.8117 13.0134 15.1186 13.0134H16.9785C17.2853 13.0134 17.5364 12.7623 17.5364 12.4554ZM13.0728 16.919V15.0592C13.0728 14.7523 12.8217 14.5012 12.5149 14.5012H10.655C10.3481 14.5012 10.0971 14.7523 10.0971 15.0592V16.919C10.0971 17.2259 10.3481 17.477 10.655 17.477H12.5149C12.8217 17.477 13.0728 17.2259 13.0728 16.919ZM8.6092 16.919V15.0592C8.6092 14.7523 8.35812 14.5012 8.05125 14.5012H6.19141C5.88454 14.5012 5.63346 14.7523 5.63346 15.0592V16.919C5.63346 17.2259 5.88454 17.477 6.19141 17.477H8.05125C8.35812 17.477 8.6092 17.2259 8.6092 16.919ZM17.5364 16.919V15.0592C17.5364 14.7523 17.2853 14.5012 16.9785 14.5012H15.1186C14.8117 14.5012 14.5607 14.7523 14.5607 15.0592V16.919C14.5607 17.2259 14.8117 17.477 15.1186 17.477H16.9785C17.2853 17.477 17.5364 17.2259 17.5364 16.919ZM22 4.83009V21.1966C22 22.4288 21.0003 23.4284 19.7682 23.4284H3.40166C2.16952 23.4284 1.16986 22.4288 1.16986 21.1966V4.83009C1.16986 3.59795 2.16952 2.59829 3.40166 2.59829H5.63346V0.180509C5.63346 -0.126364 5.88454 -0.377441 6.19141 -0.377441H8.05125C8.35812 -0.377441 8.6092 -0.126364 8.6092 0.180509V2.59829H14.5607V0.180509C14.5607 -0.126364 14.8117 -0.377441 15.1186 -0.377441H16.9785C17.2853 -0.377441 17.5364 -0.126364 17.5364 0.180509V2.59829H19.7682C21.0003 2.59829 22 3.59795 22 4.83009ZM19.7682 20.9177V7.0619H3.40166V20.9177C3.40166 21.0711 3.5272 21.1966 3.68064 21.1966H19.4892C19.6427 21.1966 19.7682 21.0711 19.7682 20.9177Z" fill="black"/>
    </g>
    <defs>
        <clipPath id="clip0">
            <rect width="24" height="24" fill="white" transform="translate(24) rotate(90)"/>
        </clipPath>
    </defs>
</svg>
